<?xml version="1.0" encoding="UTF-8"?>
<svg id="Layer_2" data-name="Layer 2" xmlns="http://www.w3.org/2000/svg" viewBox="0 0 290.97 71.2">
  <defs>
    <style>
      .cls-1 {
        fill: #fffcf8;
      }

      .cls-2 {
        fill: #bed740;
      }
    </style>
  </defs>
  <g id="Layer_1-2" data-name="Layer 1">
    <g>
      <path class="cls-2" d="M0,70.3V0c.75.71,1.41,1.3,2.03,1.92,10.94,10.92,21.87,21.85,32.82,32.76.43.43.46.65.02,1.08-3.58,3.5-7.14,7.01-10.68,10.55-.43.43-.66.31-1.02-.06-1.96-1.97-3.94-3.92-5.91-5.88-.24-.24-.44-.68-.85-.48-.33.16-.21.58-.21.9.01,4.12.01,8.25.06,12.37.01.82-.21,1.42-.8,2-5.01,4.93-10,9.89-15,14.83-.09.09-.21.14-.46.32Z"/>
      <path class="cls-2" d="M83.91,28.53c-1.32-1.23-2.63-2.44-3.93-3.67-1.53-1.44-1.52-1.44-3.02.06-11.24,11.29-22.49,22.57-33.73,33.86-1.01,1.02-2.03,2.03-3.01,3.09-.42.46-.66.53-1.15.04-3.32-3.35-6.65-6.67-10.02-9.97-.58-.57-.6-.89,0-1.48,4.06-4.05,8.07-8.15,12.11-12.22,4.72-4.75,9.46-9.48,14.18-14.22,3.44-3.46,6.87-6.93,10.33-10.37.58-.58.71-.9-.03-1.5-1.48-1.19-2.85-2.5-4.26-3.77-.18-.17-.49-.31-.34-.63.11-.25.4-.15.62-.19,3.07-.61,6.13-1.22,9.2-1.82,3.71-.72,7.42-1.43,11.13-2.14.54-.1,1.09-.21,1.62-.34.59-.14.83.03.8.68-.06,1.08,0,2.16-.05,3.24-.33,6.8-.24,13.61-.3,20.42,0,.29.08.59-.16.92Z"/>
      <path class="cls-1" d="M232.24,22.82c2.66,0,5.11,0,7.56,0,.53,0,.7.42.94.76,1.53,2.19,3.08,4.37,4.58,6.59.5.73.79.76,1.3,0,1.5-2.22,3.08-4.38,4.59-6.59.35-.52.73-.74,1.36-.73,2.15.03,4.29.01,6.66.01-1.14,1.62-2.14,3.06-3.16,4.47-1.87,2.59-3.75,5.18-5.66,7.75-.36.49-.44.82-.04,1.35,2.99,4,5.95,8.03,8.91,12.05.97,1.32,1.06,1.32,1.74-.2,3.64-8.19,7.29-16.39,10.91-24.59.26-.58.54-.87,1.22-.86,1.83.05,3.67.04,5.5.01.53,0,.8.18,1.02.68,3.69,8.45,7.4,16.9,11.13,25.34.31.7.22.93-.58.91-1.77-.04-3.54-.05-5.3,0-.72.03-1.07-.24-1.31-.87-.51-1.31-1.08-2.59-1.59-3.9-.21-.53-.54-.72-1.12-.71-3.47.03-6.94.04-10.41.01-.65,0-.93.28-1.14.83-.54,1.36-1.13,2.71-1.67,4.07-.17.43-.43.58-.89.58-4.64-.01-9.28-.02-13.92,0-.75,0-1.01-.52-1.34-.98-1.72-2.38-3.46-4.76-5.14-7.17-.49-.7-.71-.62-1.16.03-1.67,2.46-3.4,4.87-5.07,7.33-.37.55-.77.79-1.44.77-1.93-.03-3.86,0-5.79,0-.3,0-.74.18-.87-.19-.07-.18.21-.52.37-.75,2.83-3.92,5.65-7.85,8.54-11.72.65-.87.69-1.46,0-2.34-2.85-3.66-5.56-7.42-8.23-11.22-.13-.18-.25-.37-.5-.75ZM275.77,29.73c-.17.33-.26.46-.32.61-1.11,2.78-2.21,5.56-3.34,8.34-.3.72.14.67.6.67,2.03,0,4.05-.02,6.08,0,.75.01.83-.25.56-.88-.42-.99-.76-2.01-1.17-3-.77-1.86-1.4-3.78-2.41-5.75Z"/>
      <path class="cls-1" d="M113.12,34.96c-.35.54-.24.91-.24,1.25.01,4.19.01,8.38.07,12.57,0,.78-.2,1.02-.99.99-1.57-.06-3.14-.03-4.71,0-.61.02-.88-.13-.88-.81.01-8.48.01-16.95,0-25.43,0-.62.22-.79.81-.78,1.54.04,3.08.05,4.61.03.53,0,.83.2,1.09.64,2.84,4.87,5.69,9.73,8.54,14.6.16.27.21.69.59.71.41.02.45-.44.59-.7,2.71-4.76,5.42-9.52,8.08-14.31.42-.76.9-1.08,1.77-1.02,1.37.08,2.75.07,4.12.05.64,0,.93.13.93.87,0,8.44,0,16.89.04,25.33,0,.66-.22.83-.86.82-1.54-.04-3.08-.04-4.61.03-.9.04-1.09-.29-1.09-1.13.04-4.22.03-8.44.02-12.66,0-.32.19-.82-.29-.92-.44-.09-.52.41-.68.7-2.01,3.47-4.02,6.94-5.99,10.43-.4.7-.84,1.13-1.69.99-.25-.04-.53-.04-.78.01-.98.21-1.48-.3-1.92-1.09-1.58-2.82-3.2-5.61-4.82-8.4-.52-.9-1.08-1.76-1.69-2.76Z"/>
      <path class="cls-2" d="M79.73,51.36c0,6.25-.02,12.5.02,18.75,0,.89-.29,1.1-1.13,1.1-4.68-.03-9.36-.04-14.04,0-.84,0-1.05-.26-1.05-1.07.02-7.33,0-14.66-.02-21.99,0-.48.09-.86.46-1.22,4.96-4.89,9.89-9.8,14.84-14.7.2-.2.38-.59.68-.48.43.16.13.57.13.86,0,6.25,0,12.5,0,18.75.03,0,.06,0,.09,0Z"/>
      <path class="cls-1" d="M175.4,36.25c0-4.16.02-8.31-.02-12.47,0-.74.2-.97.93-.94,1.34.06,2.68.06,4.02.02.63-.02,1.01.23,1.4.7,3.75,4.57,7.52,9.12,11.29,13.68.16.19.28.53.57.45.39-.1.24-.48.24-.75,0-4.39,0-8.77-.04-13.16,0-.73.17-.97.92-.95,1.67.05,3.34.05,5.01,0,.7-.02.97.14.96.91-.03,8.38-.02,16.76,0,25.14,0,.72-.27.88-.93.86-1.14-.04-2.3-.08-3.43.03-1.01.1-1.65-.32-2.25-1.05-3.51-4.26-7.05-8.5-10.59-12.75-.17-.2-.33-.41-.5-.6-.12-.14-.22-.35-.46-.27-.25.08-.2.3-.21.49,0,.36,0,.72,0,1.08,0,4.06-.03,8.12,0,12.18,0,.75-.22.95-.95.93-1.67-.05-3.34-.03-5.01.02-.68.02-.93-.18-.93-.88.02-4.22.01-8.44.01-12.67-.02,0-.03,0-.05,0Z"/>
      <path class="cls-1" d="M207.58,36.32c0-4.16.02-8.31-.02-12.47,0-.75.16-1.02.96-1.01,6.41.04,12.83.05,19.24.04.66,0,.94.15.9.87-.06,1.18-.09,2.36-.02,3.53.06.85-.31.95-1.02.94-3.99-.02-7.98.03-11.97-.02-.95-.01-1.2.31-1.14,1.18.07,1.04.09,2.09.05,3.14-.04.81.32.99,1.05.98,3.5-.03,7,0,10.5-.04.73,0,1,.17.96.92-.05,1.14-.04,2.29,0,3.43.02.7-.25.88-.93.88-3.5-.03-7,.02-10.5-.03-.89-.01-1.12.28-1.07,1.12.07,1.21.08,2.42,0,3.63-.05.82.28.99,1.01.99,4.16-.01,8.31.04,12.47,0,.86,0,1.17.23,1.11,1.11-.07,1.11-.04,2.22,0,3.34.02.65-.18.93-.9.93-6.61-.01-13.22,0-19.83.04-.73,0-.87-.27-.87-.92.02-4.19.01-8.38.01-12.57h0Z"/>
      <path class="cls-1" d="M168.16,49.77c-.92,0-1.83-.02-2.75,0-.53.02-.84-.16-1.03-.68-.49-1.31-1.05-2.6-1.54-3.92-.23-.62-.55-.91-1.29-.9-3.44.06-6.87.06-10.31.06-.53,0-.83.15-1.02.67-.48,1.32-1.04,2.6-1.54,3.92-.23.6-.56.85-1.23.84-1.73-.04-3.47-.01-5.2.04-.8.02-1-.17-.65-.94,3.7-8.34,7.39-16.68,11.06-25.04.31-.72.69-1.06,1.53-1.02,1.7.08,3.4.06,5.1.03.58-.01.88.2,1.11.72,3.7,8.48,7.4,16.96,11.12,25.43.28.63.15.82-.52.8-.95-.03-1.9,0-2.85,0h0ZM156.49,39.36v-.03c1.01,0,2.02-.02,3.03,0,.65.02.82-.19.58-.81-1.07-2.72-2.12-5.45-3.17-8.17-.08-.21-.11-.49-.39-.49-.32,0-.26.33-.33.52-1.11,2.74-2.18,5.5-3.32,8.22-.31.74.01.76.57.75,1.01-.01,2.02,0,3.03,0Z"/>
    </g>
  </g>
</svg>